# L-shaped block: 3 voxels, faces written separately (needs welding)
v 0 0 0
v 0 0 1
v 0 1 1
v 0 1 0
f 1 2 3 4
v 0 0 0
v 1 0 0
v 1 0 1
v 0 0 1
f 5 6 7 8
v 0 0 1
v 1 0 1
v 1 1 1
v 0 1 1
f 9 10 11 12
v 0 0 0
v 0 1 0
v 1 1 0
v 1 0 0
f 13 14 15 16
v 1 1 0
v 1 2 0
v 1 2 1
v 1 1 1
f 17 18 19 20
v 0 1 0
v 0 1 1
v 0 2 1
v 0 2 0
f 21 22 23 24
v 0 2 0
v 0 2 1
v 1 2 1
v 1 2 0
f 25 26 27 28
v 0 1 1
v 1 1 1
v 1 2 1
v 0 2 1
f 29 30 31 32
v 0 1 0
v 0 2 0
v 1 2 0
v 1 1 0
f 33 34 35 36
v 2 0 0
v 2 1 0
v 2 1 1
v 2 0 1
f 37 38 39 40
v 1 1 0
v 1 1 1
v 2 1 1
v 2 1 0
f 41 42 43 44
v 1 0 0
v 2 0 0
v 2 0 1
v 1 0 1
f 45 46 47 48
v 1 0 1
v 2 0 1
v 2 1 1
v 1 1 1
f 49 50 51 52
v 1 0 0
v 1 1 0
v 2 1 0
v 2 0 0
f 53 54 55 56
